<?xml version="1.0" encoding="utf-8"?>
<svg version="1.1" id="Группа_2" xmlns="http://www.w3.org/2000/svg" xmlns:xlink="http://www.w3.org/1999/xlink" x="0px"
	 y="0px" viewBox="0 0 46 46">
<path d="M40,44H6a4,4,0,0,1-4-4V6A4,4,0,0,1,6,2H40a4,4,0,0,1,4,4V40A4,4,0,0,1,40,44ZM42,6a2,2,0,0,0-2-2H6A2,2,0,0,0,4,6V40a2,2,0,0,0,2,2H40a2,2,0,0,0,2-2V6ZM34,38H32a2,2,0,0,1-2-2V24a2,2,0,0,1,2-2h2a2,2,0,0,1,2,2V36A2,2,0,0,1,34,38Zm0-13a1,1,0,1,0-2,0V35a1,1,0,1,0,2,0V25ZM24,38H22a2,2,0,0,1-2-2V8a2,2,0,0,1,2-2h2a2,2,0,0,1,2,2V36A2,2,0,0,1,24,38ZM24,9a1,1,0,0,0-2,0V35a1,1,0,1,0,2,0V9ZM14,38H12a2,2,0,0,1-2-2V17a2,2,0,0,1,2-2h2a2,2,0,0,1,2,2V36A2,2,0,0,1,14,38Zm0-20a1,1,0,0,0-2,0V35a1,1,0,1,0,2,0V18Z"/>
</svg>