<?xml version="1.0" encoding="utf-8"?>
<svg version="1.1" id="Группа_2" xmlns="http://www.w3.org/2000/svg" xmlns:xlink="http://www.w3.org/1999/xlink" x="0px"
	 y="0px" viewBox="0 0 46 46">
<path d="M40,44H6a4,4,0,0,1-4-4V6A4,4,0,0,1,6,2H40a4,4,0,0,1,4,4V40A4,4,0,0,1,40,44ZM42,6a2,2,0,0,0-2-2H6A2,2,0,0,0,4,6V40a2,2,0,0,0,2,2H40a2,2,0,0,0,2-2V6ZM35,40a5,5,0,1,1,5-5A5,5,0,0,1,35,40Zm0-8a3,3,0,1,0,3,3A3,3,0,0,0,35,32Zm0-4a5,5,0,1,1,5-5A5,5,0,0,1,35,28Zm0-8a3,3,0,1,0,3,3A3,3,0,0,0,35,20Zm0-4a5,5,0,1,1,5-5A5,5,0,0,1,35,16Zm0-8a3,3,0,1,0,3,3A3,3,0,0,0,35,8ZM23,40a5,5,0,1,1,5-5A5,5,0,0,1,23,40Zm0-8a3,3,0,1,0,3,3A3,3,0,0,0,23,32Zm0-4a5,5,0,1,1,5-5A5,5,0,0,1,23,28Zm0-8a3,3,0,1,0,3,3A3,3,0,0,0,23,20Zm0-4a5,5,0,1,1,5-5A5,5,0,0,1,23,16Zm0-8a3,3,0,1,0,3,3A3,3,0,0,0,23,8ZM11,40a5,5,0,1,1,5-5A5,5,0,0,1,11,40Zm0-8a3,3,0,1,0,3,3A3,3,0,0,0,11,32Zm0-4a5,5,0,1,1,5-5A5,5,0,0,1,11,28Zm0-8a3,3,0,1,0,3,3A3,3,0,0,0,11,20Zm0-4a5,5,0,1,1,5-5A5,5,0,0,1,11,16Zm0-8a3,3,0,1,0,3,3A3,3,0,0,0,11,8Z"/>
</svg>