<?xml version="1.0" encoding="utf-8"?>
<!-- Generator: Adobe Illustrator 21.1.0, SVG Export Plug-In . SVG Version: 6.00 Build 0)  -->
<svg version="1.1" id="Слой_1" xmlns="http://www.w3.org/2000/svg" xmlns:xlink="http://www.w3.org/1999/xlink" x="0px" y="0px"
	 viewBox="0 0 46 46" style="enable-background:new 0 0 46 46;" xml:space="preserve">
<g>
	<rect x="12" y="36" width="26" height="2"/>
	<rect x="12" y="30" width="26" height="2"/>
	<rect x="8" y="18" width="2" height="2"/>
	<rect x="12" y="24" width="26" height="2"/>
	<rect x="12" y="18" width="26" height="2"/>
	<rect x="8" y="24" width="2" height="2"/>
	<path d="M40,2H6C3.8,2,2,3.8,2,6v6v2v26c0,2.2,1.8,4,4,4h34c2.2,0,4-1.8,4-4V14v-2V6C44,3.8,42.2,2,40,2z M42,40c0,1.1-0.9,2-2,2H6
		c-1.1,0-2-0.9-2-2V14h38V40z M42,12H4V6c0-1.1,0.9-2,2-2h34c1.1,0,2,0.9,2,2V12z"/>
	<rect x="12" y="7" width="23" height="2"/>
	<rect x="8" y="30" width="2" height="2"/>
	<rect x="8" y="36" width="2" height="2"/>
</g>
</svg>
