<?xml version="1.0" encoding="utf-8"?>
<!-- Generator: Adobe Illustrator 21.1.0, SVG Export Plug-In . SVG Version: 6.00 Build 0)  -->
<svg version="1.1" id="Слой_1" xmlns="http://www.w3.org/2000/svg" xmlns:xlink="http://www.w3.org/1999/xlink" x="0px" y="0px"
	 viewBox="0 0 46 46" style="enable-background:new 0 0 46 46;" xml:space="preserve">
<g>
	<path d="M42.8,3.2C42.1,2.4,41.1,2,40,2H6C4.9,2,3.9,2.4,3.2,3.2S2,4.9,2,6v34c0,1.1,0.4,2.1,1.2,2.8C3.9,43.6,4.9,44,6,44h34
		c1.1,0,2.1-0.4,2.8-1.2c0.8-0.8,1.2-1.8,1.2-2.8V6C44,4.9,43.6,3.9,42.8,3.2z M42,40c0,0.5-0.2,1-0.6,1.4C41,41.8,40.5,42,40,42H6
		c-0.5,0-1-0.2-1.4-0.6C4.2,41,4,40.5,4,40V6c0-0.5,0.2-1,0.6-1.4C5,4.2,5.5,4,6,4h34c0.5,0,1,0.2,1.4,0.6C41.8,5,42,5.5,42,6V40z"
		/>
	<polygon points="27,18 27,16 24,16 24,12 22,12 22,18 24,18 	"/>
	<path d="M23,26c5,0,9-4,9-9s-4-9-9-9s-9,4-9,9S18,26,23,26z M23,10c3.9,0,7,3.1,7,7s-3.1,7-7,7s-7-3.1-7-7S19.1,10,23,10z"/>
	<path d="M15,35c-0.7,0-1.4,0.4-1.7,1H8v2h5.3c0.3,0.6,1,1,1.7,1s1.4-0.4,1.7-1H38v-2H16.7C16.4,35.4,15.7,35,15,35z"/>
	<path d="M29,29c-0.7,0-1.4,0.4-1.7,1H8v2h19.3c0.3,0.6,1,1,1.7,1s1.4-0.4,1.7-1H38v-2h-7.3C30.4,29.4,29.7,29,29,29z"/>
</g>
</svg>
