<?xml version="1.0" encoding="utf-8"?>
<svg version="1.1" id="Группа_2" xmlns="http://www.w3.org/2000/svg" xmlns:xlink="http://www.w3.org/1999/xlink" x="0px"
	 y="0px" viewBox="0 0 46 46">
<path d="M40,44H6c-2.2,0-4-1.8-4-4V6c0-2.2,1.8-4,4-4h4V0h2v2h22V0h2v2h4c2.2,0,4,1.8,4,4v34C44,42.2,42.2,44,40,44z M42,6c0-1.1-0.9-2-2-2h-4v2h-2V4H12v2h-2V4H6C4.9,4,4,4.9,4,6v6h38V6z M42,14H4v26c0,1.1,0.9,2,2,2h34c1.1,0,2-0.9,2-2V14z M38,38 H8c-1.1,0-2-0.9-2-2v-4v-2v-4v-2v-4c0-1.1,0.9-2,2-2h30c1.1,0,2,0.9,2,2v4v2v4v2v4C40,37.1,39.1,38,38,38z M32,36h6v-4h-6V36z M24,36h6v-4h-6V36z M30,30v-4h-6v4H30z M16,36h6v-4h-6V36z M22,30v-4h-6v4H22z M8,36h6v-4H8V36z M8,30h6v-4H8V30z M8,20v4h6v-4H8z M16,20v4h6v-4H16z M24,20v4h6v-4H24z M38,20h-6v4h6V20z M32,26v4h6v-4H32z"/>
</svg>
