<?xml version="1.0" encoding="utf-8"?>
<svg version="1.1" id="Группа_2" xmlns="http://www.w3.org/2000/svg" xmlns:xlink="http://www.w3.org/1999/xlink" x="0px"
	 y="0px" viewBox="0 0 46 46">
<path d="M37.295,32.113c-6.154,7.947-18.211,11.894-22.18,11.894S2.008,43.826,2.008,38.06s8.066-4.679,8.066-8.92S4.024,26.7,4.024,21.211c0-4.749,2.527-9.368,9.074-13.876A33.554,33.554,0,0,1,31.233,1.989h0V3.972A31.455,31.455,0,0,0,14.255,8.958c-5.527,3.806-8.214,7.814-8.214,12.252,0,1.707.694,2.054,2.214,2.814s3.835,1.916,3.835,5.115-2.719,4.5-4.7,5.447C5,35.73,4.024,36.364,4.024,38.06c0,2.631,3.731,3.965,11.09,3.965,3.58,0,14.9-3.781,20.576-11.112,5.063-6.538,7.687-15.8,6.1-21.539A5.787,5.787,0,0,0,38.543,5.2a19.819,19.819,0,0,0-7.308-1.231V1.989A21.784,21.784,0,0,1,39.311,3.37C46.991,6.481,45.313,21.759,37.295,32.113ZM34,25.5A2.5,2.5,0,1,1,31.5,23,2.5,2.5,0,0,1,34,25.5Zm-3,0a0.5,0.5,0,1,0,.5-0.5A0.5,0.5,0,0,0,31,25.5ZM25.5,12A2.5,2.5,0,1,1,28,9.5,2.5,2.5,0,0,1,25.5,12Zm0-3a0.5,0.5,0,1,0,.5.5A0.5,0.5,0,0,0,25.5,9ZM17,25a5,5,0,1,1,5-5A5,5,0,0,1,17,25Zm0-8a3,3,0,1,0,3,3A3,3,0,0,0,17,17ZM15,36.5A2.5,2.5,0,1,1,12.5,34,2.5,2.5,0,0,1,15,36.5Zm-3,0a0.5,0.5,0,1,0,.5-0.5A0.5,0.5,0,0,0,12,36.5ZM23.5,30A2.5,2.5,0,1,1,21,32.5,2.5,2.5,0,0,1,23.5,30Zm0,3a0.5,0.5,0,1,0-.5-0.5A0.5,0.5,0,0,0,23.5,33ZM32,14.5A2.5,2.5,0,1,1,34.5,17,2.5,2.5,0,0,1,32,14.5ZM34.5,15a0.5,0.5,0,1,0-.5-0.5A0.5,0.5,0,0,0,34.5,15ZM31.235,1.989h0Z"/>
</svg>