<svg width="46" height="46" viewBox="0 0 46 46" fill="none" xmlns="http://www.w3.org/2000/svg">
<path d="M37 28H36V22H35H34H24V18H25C26.7 18 28 16.7 28 15V12C28 10.3 26.7 9 25 9H21C19.3 9 18 10.3 18 12V15C18 16.7 19.3 18 21 18H22V22H12H11H10V28H9C7.3 28 6 29.3 6 31V34C6 35.7 7.3 37 9 37H13C14.7 37 16 35.7 16 34V31C16 29.3 14.7 28 13 28H12V24H22V28H21C19.3 28 18 29.3 18 31V34C18 35.7 19.3 37 21 37H25C26.7 37 28 35.7 28 34V31C28 29.3 26.7 28 25 28H24V24H34V28H33C31.3 28 30 29.3 30 31V34C30 35.7 31.3 37 33 37H37C38.7 37 40 35.7 40 34V31C40 29.3 38.7 28 37 28ZM13 30C13.6 30 14 30.4 14 31V34C14 34.6 13.6 35 13 35H9C8.4 35 8 34.6 8 34V31C8 30.4 8.4 30 9 30H13ZM25 30C25.6 30 26 30.4 26 31V34C26 34.6 25.6 35 25 35H21C20.4 35 20 34.6 20 34V31C20 30.4 20.4 30 21 30H25ZM21 16C20.4 16 20 15.6 20 15V12C20 11.4 20.4 11 21 11H25C25.6 11 26 11.4 26 12V15C26 15.6 25.6 16 25 16H21ZM38 34C38 34.6 37.6 35 37 35H33C32.4 35 32 34.6 32 34V31C32 30.4 32.4 30 33 30H37C37.6 30 38 30.4 38 31V34ZM38 2H8C4.7 2 2 4.7 2 8V38C2 41.3 4.7 44 8 44H38C41.3 44 44 41.3 44 38V8C44 4.7 41.3 2 38 2ZM42 38C42 40.2 40.2 42 38 42H8C5.8 42 4 40.2 4 38V8C4 5.8 5.8 4 8 4H38C40.2 4 42 5.8 42 8V38Z" fill="black"/>
</svg>
