<?xml version="1.0" encoding="utf-8"?>
<svg version="1.1" id="Группа_2" xmlns="http://www.w3.org/2000/svg" xmlns:xlink="http://www.w3.org/1999/xlink" x="0px"
	 y="0px" viewBox="0 0 46 46">
<path d="M40,44H6a4,4,0,0,1-4-4V6A4,4,0,0,1,6,2H40a4,4,0,0,1,4,4V40A4,4,0,0,1,40,44ZM42,6a2,2,0,0,0-2-2H6A2,2,0,0,0,4,6V40a2,2,0,0,0,2,2H40a2,2,0,0,0,2-2V6ZM33.817,38H11.974A3.975,3.975,0,0,1,8,34.023V12.164A4.163,4.163,0,0,1,12,8H27v2H12a2.168,2.168,0,0,0-2.013,2.165V34.023a1.988,1.988,0,0,0,1.987,1.988H33.817A2.184,2.184,0,0,0,36,34V19h2V34A4.179,4.179,0,0,1,33.817,38ZM21.942,30.364a1.936,1.936,0,0,1-1.029.509l-8.7,4.3a1.037,1.037,0,0,1-1.4-1.4l4.3-8.705a1.935,1.935,0,0,1,.509-1.03L31.074,8.573a1.986,1.986,0,0,1,2.81,0L37.4,12.088a1.989,1.989,0,0,1,0,2.812Zm-9.229,2.206a0.517,0.517,0,0,0,.7.7l5.372-3.254L15.965,27.2Zm4.311-7.127,3.512,3.515,11.24-11.247-3.537-3.49ZM35.289,12.791l-2.107-2.109a0.993,0.993,0,0,0-1.4,0L29.719,12.74l3.462,3.565L35.289,14.2A0.994,0.994,0,0,0,35.289,12.791Z"/>
</svg>