<?xml version="1.0" encoding="utf-8"?>
<svg version="1.1" id="Группа_2" xmlns="http://www.w3.org/2000/svg" xmlns:xlink="http://www.w3.org/1999/xlink" x="0px"
	 y="0px" viewBox="0 0 46 46">
<path d="M40,43H6a4,4,0,0,1-4-4V5A4,4,0,0,1,6,1H40a4,4,0,0,1,4,4V39A4,4,0,0,1,40,43ZM42,5a2,2,0,0,0-2-2H6A2,2,0,0,0,4,5V39a2,2,0,0,0,2,2H40a2,2,0,0,0,2-2V5ZM34,35H12a2,2,0,0,1-2-2V31a2,2,0,0,1,2-2H34a2,2,0,0,1,2,2v2A2,2,0,0,1,34,35Zm0-4H12v2H34V31Zm0-6H20a2,2,0,0,1-2-2V21a2,2,0,0,1,2-2H34a2,2,0,0,1,2,2v2A2,2,0,0,1,34,25Zm0-4H20v2H34V21Zm0-6H20a2,2,0,0,1-2-2V11a2,2,0,0,1,2-2H34a2,2,0,0,1,2,2v2A2,2,0,0,1,34,15Zm0-4H20v2H34V11ZM14,25H12a2,2,0,0,1-2-2V21a2,2,0,0,1,2-2h2a2,2,0,0,1,2,2v2A2,2,0,0,1,14,25Zm0-4H12v2h2V21Zm-2.056-6.158a0.892,0.892,0,0,1-.653.158H11.26a0.846,0.846,0,0,1-.664-0.2L8.231,12.308a0.8,0.8,0,0,1,.088-1.2,0.968,0.968,0,0,1,1.3.095l1.716,1.847,4.072-3.812a0.967,0.967,0,0,1,1.305,0,0.827,0.827,0,0,1,0,1.224Z" transform="translate(0 1)"/>
</svg>
