<?xml version="1.0" encoding="utf-8"?>
<svg version="1.1" id="Группа_2" xmlns="http://www.w3.org/2000/svg" xmlns:xlink="http://www.w3.org/1999/xlink" x="0px"
	 y="0px" viewBox="0 0 46 46">
<path d="M40,39H28v1a2,2,0,0,1-2,2H6a2,2,0,0,1-2-2V36a2,2,0,0,1,2-2H26a2,2,0,0,1,2,2v1H40V27H38v1a2,2,0,0,1-2,2H16a2,2,0,0,1-2-2V26l-4,4V27H6V16H30V9H28v1a2,2,0,0,1-2,2H6a2,2,0,0,1-2-2V6A2,2,0,0,1,6,4H26a2,2,0,0,1,2,2V7h4V18H8v7h2V22l4,4V24a2,2,0,0,1,2-2H36a2,2,0,0,1,2,2v1h4V39H40ZM24,36H8a2,2,0,0,0,0,4H24A2,2,0,0,0,24,36ZM26,6H15v4H26V6Zm8,18H18a2,2,0,0,0,0,4H34A2,2,0,0,0,34,24Z"></path>
</svg>