<?xml version="1.0" encoding="utf-8"?>
<svg version="1.1" id="Группа_2" xmlns="http://www.w3.org/2000/svg" xmlns:xlink="http://www.w3.org/1999/xlink" x="0px"
	 y="0px" viewBox="0 0 46 46">
<path d="M40,43H6a4,4,0,0,1-4-4V5A4,4,0,0,1,6,1H40a4,4,0,0,1,4,4V39A4,4,0,0,1,40,43ZM24,23v8h8V23H24Zm8-2V13H24v8h8ZM24,33v8h8V33H24ZM14,41h8V33H14v8Zm0-10h8V23H14v8Zm0-10h8V13H14v8ZM4,39a2,2,0,0,0,2,2h6V33H4v6Zm0-8h8V23H4v8ZM4,21h8V13H4v8ZM42,5a2,2,0,0,0-2-2H6A2,2,0,0,0,4,5v6H42V5Zm0,8H34v8h8V13Zm0,10H34v8h8V23Zm0,10H34v8h6a2,2,0,0,0,2-2V33Z" transform="translate(0 1)"/>
</svg>
