<?xml version="1.0" encoding="utf-8"?>
<svg version="1.1" id="Группа_2" xmlns="http://www.w3.org/2000/svg" xmlns:xlink="http://www.w3.org/1999/xlink" x="0px"
	 y="0px" viewBox="0 0 46 46">
<path d="M40,43H6a4,4,0,0,1-4-4V5A4,4,0,0,1,6,1H40a4,4,0,0,1,4,4V39A4,4,0,0,1,40,43ZM42,5a2,2,0,0,0-2-2H6A2,2,0,0,0,4,5V39a2,2,0,0,0,2,2H40a2,2,0,0,0,2-2V5ZM36,37H24a2,2,0,0,1-2-2V19a2,2,0,0,1,2-2H36a2,2,0,0,1,2,2V35A2,2,0,0,1,36,37Zm0-18H24V35H36V19Zm0-4H10a2,2,0,0,1-2-2V9a2,2,0,0,1,2-2H36a2,2,0,0,1,2,2v4A2,2,0,0,1,36,15Zm0-6H10v4H36V9ZM10,17h8a2,2,0,0,1,2,2V35a2,2,0,0,1-2,2H10a2,2,0,0,1-2-2V19A2,2,0,0,1,10,17Zm0,18h8V19H10V35Z" transform="translate(0 1)"/>
</svg>
