<?xml version="1.0" encoding="utf-8"?>
<svg version="1.1" id="Группа_2" xmlns="http://www.w3.org/2000/svg" xmlns:xlink="http://www.w3.org/1999/xlink" x="0px"
	 y="0px" viewBox="0 0 46 46">
<path d="M40,44H6a4,4,0,0,1-4-4V6A4,4,0,0,1,6,2H40a4,4,0,0,1,4,4V40A4,4,0,0,1,40,44ZM42,6a2,2,0,0,0-2-2H6A2,2,0,0,0,4,6V40a2,2,0,0,0,2,2H40a2,2,0,0,0,2-2V6ZM33,33.328L32,38l-4.605-2.451a14.844,14.844,0,0,1-2.395.2c-3.851,0-5.619-.422-8-2.75,0.392,0.022,1.1,0,1.5,0,0.558,0,.955.044,1.5,0,1.879,1.294,2.41,1,5,1a12.641,12.641,0,0,0,2.587-.275L31,36V32.456A10.039,10.039,0,0,0,36,24a7.391,7.391,0,0,0-2.151-5.126A12.969,12.969,0,0,0,34,17c0-.291-0.032-0.575-0.051-0.861A9.994,9.994,0,0,1,38,24,11.575,11.575,0,0,1,33,33.328ZM20,31a14.46,14.46,0,0,1-2.363-.263L12,34V28.328A12.155,12.155,0,0,1,8,19C8,12.718,12.81,8,20,8c5.977,0,12,4.718,12,11A11.864,11.864,0,0,1,20,31Zm0-21c-6.247,0-10,3.754-10,9a11,11,0,0,0,4,8.456V31l3.413-2.275A12.642,12.642,0,0,0,20,29,9.822,9.822,0,0,0,30,19C30,13.754,24.973,10,20,10Zm4,9a2,2,0,1,1,2,2A2,2,0,0,1,24,19Zm-4,2a2,2,0,1,1,2-2A2,2,0,0,1,20,21Zm-6,0a2,2,0,1,1,2-2A2,2,0,0,1,14,21Z"/>
</svg>