<?xml version="1.0" encoding="utf-8"?>
<svg version="1.1" id="Группа_2" xmlns="http://www.w3.org/2000/svg" xmlns:xlink="http://www.w3.org/1999/xlink" x="0px"
	 y="0px" viewBox="0 0 46 46">
<path d="M40,44H6a4,4,0,0,1-4-4V6A4,4,0,0,1,6,2H40a4,4,0,0,1,4,4V40A4,4,0,0,1,40,44ZM42,6a2,2,0,0,0-2-2H6A2,2,0,0,0,4,6V40a2,2,0,0,0,2,2H40a2,2,0,0,0,2-2V6ZM36,40H10a4,4,0,0,1-4-4V10a4,4,0,0,1,4-4H36a4,4,0,0,1,4,4V36A4,4,0,0,1,36,40Zm2-30a2,2,0,0,0-2-2H10a2,2,0,0,0-2,2V36a2,2,0,0,0,2,2H36a2,2,0,0,0,2-2V10ZM35,21a1,1,0,0,1-1-1l0.032-6.575-6.788,6.787L25.83,18.8l6.8-6.8H26a1,1,0,0,1,0-2h8.972a0.994,0.994,0,0,1,.712.3A0.894,0.894,0,0,1,36,11v9A1,1,0,0,1,35,21ZM20,36H11.028a1,1,0,0,1-.712-0.3A0.893,0.893,0,0,1,10,35V26a1,1,0,0,1,2,0l-0.032,6.575,6.788-6.787L20.17,27.2l-6.8,6.8H20A1,1,0,0,1,20,36Z"/>
</svg>