<?xml version="1.0" encoding="utf-8"?>
<!-- Generator: Adobe Illustrator 21.1.0, SVG Export Plug-In . SVG Version: 6.00 Build 0)  -->
<svg version="1.1" id="Слой_1" xmlns="http://www.w3.org/2000/svg" xmlns:xlink="http://www.w3.org/1999/xlink" x="0px" y="0px"
	 viewBox="0 0 46 46" style="enable-background:new 0 0 46 46;" xml:space="preserve">
<path d="M12,28h4c1.1,0,2-0.9,2-2v-2c0-1.1-0.9-2-2-2h-4c-1.1,0-2,0.9-2,2v2C10,27.1,10.9,28,12,28z M12,24h4v2h-4V24z M18,31h-8v-2
	h8V31z M20,6H8C6.9,6,6,6.9,6,8v26c0,1.1,0.9,2,2,2h12c1.1,0,2-0.9,2-2V8C22,6.9,21.1,6,20,6z M20,34H8V8h12V34z M6,38h16v2H6V38z
	 M12,16h4c1.1,0,2-0.9,2-2v-2c0-1.1-0.9-2-2-2h-4c-1.1,0-2,0.9-2,2v2C10,15.1,10.9,16,12,16z M12,12h4v2h-4V12z M18,19h-8v-2h8V19z
	 M24,38h16v2H24V38z M42.8,3.2C42.1,2.4,41.1,2,40,2H6C4.9,2,3.9,2.4,3.2,3.2S2,4.9,2,6v34c0,1.1,0.4,2.1,1.2,2.8
	C3.9,43.6,4.9,44,6,44h34c1.1,0,2.1-0.4,2.8-1.2c0.8-0.8,1.2-1.8,1.2-2.8V6C44,4.9,43.6,3.9,42.8,3.2z M42,40c0,0.5-0.2,1-0.6,1.4
	C41,41.8,40.5,42,40,42H6c-0.5,0-1-0.2-1.4-0.6C4.2,41,4,40.5,4,40V6c0-0.5,0.2-1,0.6-1.4C5,4.2,5.5,4,6,4h34c0.5,0,1,0.2,1.4,0.6
	C41.8,5,42,5.5,42,6V40z M38,6H26c-1.1,0-2,0.9-2,2v26c0,1.1,0.9,2,2,2h12c1.1,0,2-0.9,2-2V8C40,6.9,39.1,6,38,6z M38,34H26V8h12V34
	z M36,31h-8v-2h8V31z M36,19h-8v-2h8V19z M36,13h-8v-2h8V13z M36,25h-8v-2h8V25z"/>
</svg>
