<?xml version="1.0" encoding="utf-8"?>
<svg version="1.1" id="Группа_2" xmlns="http://www.w3.org/2000/svg" xmlns:xlink="http://www.w3.org/1999/xlink" x="0px"
	 y="0px" viewBox="0 0 46 46">
<path d="M40,44H6a4,4,0,0,1-4-4V6A4,4,0,0,1,6,2h4V0h2V2H34V0h2V2h4a4,4,0,0,1,4,4V40A4,4,0,0,1,40,44ZM42,6a2,2,0,0,0-2-2H36V6H34V4H12V6H10V4H6A2,2,0,0,0,4,6v6H42V6Zm0,8H4V40a2,2,0,0,0,2,2H40a2,2,0,0,0,2-2V14ZM38,38H32a2,2,0,0,1-2-2V32a2,2,0,0,1,2-2h6a2,2,0,0,1,2,2v4A2,2,0,0,1,38,38Zm0-6H32v4h6V32Zm0-4H32a2,2,0,0,1-2-2V22a2,2,0,0,1,2-2h6a2,2,0,0,1,2,2v4A2,2,0,0,1,38,28Zm0-6H32v4h6V22ZM26,38H20a2,2,0,0,1-2-2V32a2,2,0,0,1,2-2h6a2,2,0,0,1,2,2v4A2,2,0,0,1,26,38Zm0-6H20v4h6V32Zm0-4H20a2,2,0,0,1-2-2V22a2,2,0,0,1,2-2h6a2,2,0,0,1,2,2v4A2,2,0,0,1,26,28Zm0-6H20v4h6V22ZM14,38H8a2,2,0,0,1-2-2V32a2,2,0,0,1,2-2h6a2,2,0,0,1,2,2v4A2,2,0,0,1,14,38Zm0-6H8v4h6V32Zm0-4H8a2,2,0,0,1-2-2V22a2,2,0,0,1,2-2h6a2,2,0,0,1,2,2v4A2,2,0,0,1,14,28Zm0-6H8v4h6V22Z"></path>
</svg>