<?xml version="1.0" encoding="utf-8"?>
<svg version="1.1" id="Группа_2" xmlns="http://www.w3.org/2000/svg" xmlns:xlink="http://www.w3.org/1999/xlink" x="0px"
	 y="0px" viewBox="0 0 46 46">
<path d="M40,44H6a4,4,0,0,1-4-4V6A4,4,0,0,1,6,2H40a4,4,0,0,1,4,4V40A4,4,0,0,1,40,44ZM4,40a2,2,0,0,0,2,2H18V16H4V40ZM4,6v8H18V4H6A2,2,0,0,0,4,6ZM42,6a2,2,0,0,0-2-2H20V42H40a2,2,0,0,0,2-2V6ZM15.5,12h-7A0.5,0.5,0,0,1,8,11.5v-1A0.5,0.5,0,0,1,8.5,10h7a0.5,0.5,0,0,1,.5.5v1A0.5,0.5,0,0,1,15.5,12Zm0,24h-7A0.5,0.5,0,0,1,8,35.5v-1A0.5,0.5,0,0,1,8.5,34h7a0.5,0.5,0,0,1,.5.5v1A0.5,0.5,0,0,1,15.5,36Zm0-6h-7A0.5,0.5,0,0,1,8,29.5v-1A0.5,0.5,0,0,1,8.5,28h7a0.5,0.5,0,0,1,.5.5v1A0.5,0.5,0,0,1,15.5,30Zm0-6h-7A0.5,0.5,0,0,1,8,23.5v-1A0.5,0.5,0,0,1,8.5,22h7a0.5,0.5,0,0,1,.5.5v1A0.5,0.5,0,0,1,15.5,24Z"/>
</svg>