<?xml version="1.0" encoding="utf-8"?>
<svg version="1.1" id="Группа_2" xmlns="http://www.w3.org/2000/svg" xmlns:xlink="http://www.w3.org/1999/xlink" x="0px"
	 y="0px" viewBox="0 0 46 46">
<path d="M40,44H6a4,4,0,0,1-4-4V6A4,4,0,0,1,6,2H40a4,4,0,0,1,4,4V40A4,4,0,0,1,40,44ZM42,6a2,2,0,0,0-2-2H6A2,2,0,0,0,4,6V40a2,2,0,0,0,2,2H40a2,2,0,0,0,2-2V6ZM36,26H25v2a2,2,0,0,1-4,0V26H10a2,2,0,0,1-2-2V18a2,2,0,0,1,2-2H21V14a2,2,0,0,1,4,0v2H36a2,2,0,0,1,2,2v6A2,2,0,0,1,36,26ZM21,22H14V20h7V18H12c-1.994,0-2,.056-2,2v2c0,2-.064,2,2,2h9V22Zm15-2c0-1.978-.037-1.967-2-2H25v2h7v2H25v2h9c2,0,2,0,2-2V20ZM10,30H8V28h2v2Zm28,0H36V28h2v2Z" />
</svg>