<?xml version="1.0" encoding="utf-8"?>
<svg version="1.1" id="Группа_2" xmlns="http://www.w3.org/2000/svg" xmlns:xlink="http://www.w3.org/1999/xlink" x="0px"
	 y="0px" viewBox="0 0 46 46">
<path d="M40,44H6a4,4,0,0,1-4-4V6A4,4,0,0,1,6,2H40a4,4,0,0,1,4,4V40A4,4,0,0,1,40,44ZM4,40a2,2,0,0,0,2,2h4V36H4v4Zm0-6h6V30H4v4Zm0-6h6V24H4v4Zm0-6h6V18H4v4Zm0-6h6V12H4v4ZM4,6v4h6V4H6A2,2,0,0,0,4,6ZM16,4H12v6h4V4Zm0,8H12v4h4V12Zm0,6H12v4h4V18Zm0,6H12v4h4V24Zm0,6H12v4h4V30Zm0,6H12v6h4V36ZM22,4H18v6h4V4Zm0,8H18v4h4V12Zm0,6H18v4h4V18Zm0,6H18v4h4V24Zm0,6H18v4h4V30Zm0,6H18v6h4V36ZM28,4H24v6h4V4Zm0,8H24v4h4V12Zm0,6H24v4h4V18Zm0,6H24v4h4V24Zm0,6H24v4h4V30Zm0,6H24v6h4V36ZM34,4H30v6h4V4Zm0,8H30v4h4V12Zm0,6H30v4h4V18Zm0,6H30v4h4V24Zm0,6H30v4h4V30Zm0,6H30v6h4V36ZM42,6a2,2,0,0,0-2-2H36v6h6V6Zm0,6H36v4h6V12Zm0,6H36v4h6V18Zm0,6H36v4h6V24Zm0,6H36v4h6V30Zm0,6H36v6h4a2,2,0,0,0,2-2V36Z"></path>
</svg>