<?xml version="1.0" encoding="utf-8"?>
<svg version="1.1" id="Группа_2" xmlns="http://www.w3.org/2000/svg" xmlns:xlink="http://www.w3.org/1999/xlink" x="0px"
	 y="0px" viewBox="0 0 46 46">
<path d="M40,16H6a4,4,0,0,1-4-4V6A4,4,0,0,1,6,2H40a4,4,0,0,1,4,4v6A4,4,0,0,1,40,16ZM42,6a2,2,0,0,0-2-2H6A2,2,0,0,0,4,6v6a2,2,0,0,0,2,2H40a2,2,0,0,0,2-2V6Zm-7,6a3,3,0,1,1,3-3A3,3,0,0,1,35,12Zm0-4a1,1,0,1,0,1,1A1,1,0,0,0,35,8ZM23,12a3,3,0,1,1,3-3A3,3,0,0,1,23,12Zm0-4a1,1,0,1,0,1,1A1,1,0,0,0,23,8ZM11,12a3,3,0,1,1,3-3A3,3,0,0,1,11,12Zm0-4a1,1,0,1,0,1,1A1,1,0,0,0,11,8ZM10,22H8V20h2v2Zm0,6H8V26h2v2Zm0,6H8V32h2v2Zm0,6H8V38h2v2ZM40,22H14V20H40v2Zm0,6H14V26H40v2Zm0,6H14V32H40v2Zm0,6H14V38H40v2Z"/>
</svg>