<svg width="46" height="46" viewBox="0 0 46 46" fill="none" xmlns="http://www.w3.org/2000/svg">
<path fill-rule="evenodd" clip-rule="evenodd" d="M23 42.0268L15.7029 34H6C4.89543 34 4 33.1046 4 32V6C4 4.89543 4.89543 4 6 4H40C41.1046 4 42 4.89543 42 6V32C42 33.1046 41.1046 34 40 34H30.2971L23 42.0268ZM6 2C3.79086 2 2 3.79086 2 6V32C2 34.2091 3.79086 36 6 36H14.8182L21.5201 43.3721C22.3136 44.245 23.6864 44.245 24.4799 43.3721L31.1818 36H40C42.2091 36 44 34.2091 44 32V6C44 3.79086 42.2091 2 40 2H6ZM38 12H8V14H38V12ZM8 18H38V20H8V18ZM30 24H8V26H30V24Z" fill="black"/>
</svg>
