<?xml version="1.0" encoding="utf-8"?>
<svg version="1.1" id="Группа_2" xmlns="http://www.w3.org/2000/svg" xmlns:xlink="http://www.w3.org/1999/xlink" x="0px"
	 y="0px" viewBox="0 0 46 46">
<path d="M40,44H35V42h5a2,2,0,0,0,2-2V6a2,2,0,0,0-2-2H6A2,2,0,0,0,4,6V40a2,2,0,0,0,2,2h5v2H6a4,4,0,0,1-4-4V6A4,4,0,0,1,6,2H40a4,4,0,0,1,4,4V40A4,4,0,0,1,40,44ZM38,18H8V16H38v2ZM8,8H38v2H8V8Zm30,6H8V12H38v2ZM14,24H32a1.146,1.146,0,0,1,1,1v5a1,1,0,0,1-2,0V26H15v4a1.146,1.146,0,0,1-1,1,1.146,1.146,0,0,1-1-1V25A1.146,1.146,0,0,1,14,24Zm8.413,6.03a0.822,0.822,0,0,1,1.179,0l5.067,5.053A0.833,0.833,0,0,1,27.48,36.26L24,33V43a1.146,1.146,0,0,1-1,1,1.146,1.146,0,0,1-1-1V33l-3.48,3.264a0.833,0.833,0,0,1-1.179-1.177Z"></path>
</svg>