<?xml version="1.0" encoding="utf-8"?>
<svg version="1.1" id="Группа_2" xmlns="http://www.w3.org/2000/svg" xmlns:xlink="http://www.w3.org/1999/xlink" x="0px"
	 y="0px" viewBox="0 0 46 46">
<path d="M40,44H6a4,4,0,0,1-4-4V6A4,4,0,0,1,6,2H40a4,4,0,0,1,4,4V40A4,4,0,0,1,40,44ZM42,6a2,2,0,0,0-2-2H6A2,2,0,0,0,4,6V40a2,2,0,0,0,2,2H40a2,2,0,0,0,2-2V6ZM34,30H20a4,4,0,0,1-4-4V12a4,4,0,0,1,4-4H34a4,4,0,0,1,4,4V26A4,4,0,0,1,34,30Zm2-18a2,2,0,0,0-2-2H20a2,2,0,0,0-2,2V26a2,2,0,0,0,2,2H34a2,2,0,0,0,2-2V12ZM12,36H26a2,2,0,0,0,2-2h2a4,4,0,0,1-4,4H12a4,4,0,0,1-4-4V20a4,4,0,0,1,4-4v2a2,2,0,0,0-2,2V34A2,2,0,0,0,12,36Z"/>
</svg>